<svg width="12" height="8" fill="none" xmlns="http://www.w3.org/2000/svg">
  <path fill-rule="evenodd" clip-rule="evenodd" d="M8.24052.231016 11.7364 3.42312c.3518.31328.3511.84093.0002 1.15396L8.24068 7.76884c-.33362.31233-.86616.30332-1.19587.00229l.31746-.32242-.31707.32278c-.34686-.31595-.33791-.83624-.00609-1.14979l.00596-.00563.00006.00005 1.98868-1.8123H.852344C.394402 4.80382 0 4.45561 0 3.99743c0-.46635.403136-.80091.851637-.80157H9.03538L7.0452 1.37881c-.00007-.00007-.00015-.00014-.00023-.00021-.3434-.31303-.34274-.836953-.00016-1.149733.33-.301291.86205-.3097212 1.19571.002149ZM7.67971 7.1259c.00002.00001.00003.00002.00005.00004l-.00023-.00021m0-6.392678c.00013.000119.00026.000237.00039.000357L7.67953.733052Z" fill="#fff"/>
</svg>
