<svg width="15" height="10" fill="none" xmlns="http://www.w3.org/2000/svg">
  <path d="M12.9515 4.31752c.7917-.06532 1.3287-.42525 1.5354-.91363-.2856.17545-1.1721.36672-1.6618.18456-.024-.11504-.0508-.22431-.0771-.32296C12.3749 1.89556 11.0976.791905 9.75915.925233c.10829-.043721.21812-.084428.32765-.120972.1473-.052767 1.0117-.193404.8755-.498505-.1147-.2683599-1.17074.202811-1.36958.264395C9.85521.471433 10.2893.301627 10.3358 0c-.40212.05516-.7969.245287-1.10193.521742.11012-.118546.19367-.263018.2114-.418501C8.37268.788464 7.74612 2.16992 7.23906 3.50999c-.39815-.38586-.75103-.68972-1.0676-.85844-.8881-.47625-1.94997-.97315-3.61687-1.59194-.05116.5515.27275 1.2848 1.20611 1.77246-.20222-.02707-.57201.03333-.86777.10416.12044.6318.51381 1.15233 1.57873 1.40404-.48668.03212-.73819.14287-.96614.38156.22166.43942.76254.95657 1.73552.85041-1.08176.46626-.44108 1.32971.43915 1.20094-1.50161 1.551-3.86906 1.43701-5.22853.13975C4.00114 11.7496 11.7169 9.77332 12.8667 5.11471c.8615.00734 1.368-.29842 1.682-.63551-.4964.08423-1.2158-.00282-1.5972-.16168Z" fill="#A07B50"/>
</svg>
