<svg width="13" height="8" fill="none" xmlns="http://www.w3.org/2000/svg">
  <path d="M12.8841 7.1355c-.0349-.0631-.2511-.56965-1.2911-1.61078-1.0889-1.0902-.9426-.91318.3689-2.79825C12.7606 1.57842 13.08.877323 12.98.577604c-.0951-.285698-.6825-.21033-.6825-.21033l-1.9534.012269s-.1447-.021033-.2527.048201c-.10486.068357-.1723.226104-.1723.226104s-.30959.888642-.72237 1.644072c-.87025 1.59412-1.21884 1.67825-1.36104 1.57922-.33071-.23048-.24783-.9272-.24783-1.42147 0-1.545045.21696-2.189179-.42334-2.3556893-.21289-.0552115-.3689-.09201911-.9125-.09815372C5.55484-.00606037 4.96411.00445609 4.63015.180607c-.22265.117434-.3941.379469-.28927.394368.12919.018403.42171.085008.57691.312864.2007.293581.19339.954371.19339.954371s.11539 1.81847-.26896 2.04457c-.26408.15512-.62567-.16125-1.40166-1.60814C3.04322 1.53811 2.74257.7187 2.74257.7187S2.68488.566211 2.58168.484708c-.12513-.09903-.30064-.130579-.30064-.130579L.423525.366398S.144817.375162.0424345.505741c-.0910067.116558-.007313.356683-.007313.356683S1.4896 4.53179 3.13585 6.38182C4.6464 8.0776 6.3609 7.9663 6.3609 7.9663h.77681s.23483-.02805.35427-.16739c.11051-.12795.10645-.36808.10645-.36808s-.01544-1.12438.46884-1.29002c.47698-.163 1.08965 1.08671 1.73888 1.56783.49075.3637.86375.28395.86375.28395l1.7364-.02629s.9085-.06047.4778-.8308Z" fill="#A07B50"/>
</svg>
