<svg width="99" height="109" fill="none" xmlns="http://www.w3.org/2000/svg">
  <path d="M13.9031 24.452C6.57131 24.452.606689 30.4168.606689 37.7484c0 6.8002 5.132241 12.4208 11.726111 13.2005v10.2516c0 .8672.7032 1.5705 1.5705 1.5705s1.5705-.7033 1.5705-1.5705V50.9489c6.5939-.7797 11.7261-6.4005 11.7261-13.2005-.0002-7.3316-5.965-13.2964-13.2968-13.2964Zm0 23.452c-5.59973 0-10.15558-4.5558-10.15558-10.1556 0-5.5997 4.55585-10.1556 10.15558-10.1556 5.5997 0 10.1556 4.5559 10.1556 10.1556 0 5.5998-4.5556 10.1556-10.1556 10.1556Z" fill="#A07B50"/>
  <path d="M13.9031 31.1527c-3.6369 0-6.59594 2.959-6.59594 6.596 0 3.6369 2.95904 6.5959 6.59594 6.5959 3.637 0 6.596-2.959 6.596-6.5959 0-3.637-2.959-6.596-6.596-6.596Zm0 10.0509c-1.9051 0-3.4549-1.55-3.4549-3.4549 0-1.9049 1.55-3.4549 3.4549-3.4549 1.9051 0 3.455 1.55 3.455 3.4549 0 1.9049-1.5499 3.4549-3.455 3.4549Zm82.9198-2.5128h-.9423v-26.907c0-4.56066-3.7105-8.27097-8.271-8.27097h-3.4549v-.94231C84.1547 1.70323 83.4517 1 82.5842 1h-4.1879c-2.2514 0-4.0831 1.83175-4.0831 4.08314 0 2.25139 1.8317 4.08313 4.0831 4.08313h4.1879c.8675 0 1.5705-.70323 1.5705-1.57051v-.94231h3.4549c2.8288 0 5.1302 2.30154 5.1302 5.13015v26.9069h-.9423c-.8675 0-1.5706.7033-1.5706 1.5706v2.5126c0 6.9853-5.6831 12.6682-12.6682 12.6682H57.4569c-6.9851 0-12.6682-5.6829-12.6682-12.6682v-2.5126c0-.8673-.7032-1.5706-1.5705-1.5706h-.9423V11.7838c0-2.8286 2.3015-5.13015 5.1301-5.13015h3.455v.94231c0 .86729.703 1.57052 1.5705 1.57052h4.1878c2.2514 0 4.0832-1.83175 4.0832-4.08313C60.7027 2.83175 58.8709 1 56.6193 1h-4.1878c-.8675 0-1.5705.70323-1.5705 1.57052v.94231h-3.455c-4.5606 0-8.2709 3.71052-8.2709 8.27097v26.907h-.9424c-.8672 0-1.5705.7032-1.5705 1.5705v2.5126c0 11.4881 9.3464 20.8347 20.8347 20.8347h5.9678v7.6428c0 .8672.703 1.5705 1.5705 1.5705h.9423v8.4803c0 12.9893-10.5677 23.5568-23.5567 23.5568h-3.3502c-12.9893 0-23.5568-10.5675-23.5568-23.5568V68.8083c0-.8673-.7032-1.5705-1.5705-1.5705s-1.5705.7032-1.5705 1.5705v12.4939C12.3328 96.0235 24.3093 108 39.0306 108h3.3502c14.7213 0 26.6978-11.9765 26.6978-26.6978v-8.4803h.9423c.8675 0 1.5705-.7033 1.5705-1.5705v-7.6428h5.9677c11.4881 0 20.8347-9.3464 20.8347-20.8347v-2.5126c-.0004-.8673-.7034-1.5705-1.5709-1.5705ZM81.0136 6.02545h-2.6173c-.5195 0-.9423-.42278-.9423-.94231 0-.51954.4228-.94231.9423-.94231h2.6173v1.88462ZM54.002 4.14083h2.6173c.5196 0 .9423.42277.9423.94231 0 .51953-.4227.94231-.9423.94231H54.002V4.14083ZM95.2526 42.7739c0 9.7562-7.9372 17.6936-17.6937 17.6936h-7.538c-.8675 0-1.5706.7033-1.5706 1.5706v7.6427h-1.8846v-7.6427c0-.8673-.703-1.5706-1.5705-1.5706h-7.5381c-9.7564 0-17.6936-7.9374-17.6936-17.6936v-.9423h1.8846v.9423c0 8.7174 7.0919 15.8092 15.8092 15.8092h20.1018c8.7174 0 15.8093-7.0918 15.8093-15.8092v-.9423h1.8846l-.0004.9423Z" fill="#A07B50"/>
  <path d="M67.5078 26.1272c-7.1007 0-12.8776 5.7769-12.8776 12.8776 0 6.4902 4.8139 10.365 12.8776 10.365 8.0637 0 12.8776-3.8748 12.8776-10.365.0002-7.1007-5.7767-12.8776-12.8776-12.8776Zm0 20.1018c-3.6363 0-9.7368-.9386-9.7368-7.2242 0-5.3688 4.3678-9.7368 9.7368-9.7368 5.369 0 9.7368 4.368 9.7368 9.7368 0 6.2856-6.1005 7.2242-9.7368 7.2242Zm-6.2817-32.6654c-3.2098 0-5.3395 3.9698-5.3395 6.5959 0 2.9444 2.3952 5.3396 5.3395 5.3396 2.9444 0 5.3396-2.3952 5.3396-5.3396-.0002-2.6259-2.1298-6.5959-5.3396-6.5959Zm0 8.7947c-1.2123 0-2.1987-.9862-2.1987-2.1988 0-1.4852 1.2535-3.4549 2.1987-3.4549.9453 0 2.1988 1.9697 2.1988 3.4549-.0002 1.2123-.9864 2.1988-2.1988 2.1988Zm12.5635-8.7947c-3.2098 0-5.3395 3.9698-5.3395 6.5959 0 2.9444 2.3952 5.3396 5.3395 5.3396 2.9444 0 5.3396-2.3952 5.3396-5.3396 0-2.6259-2.1298-6.5959-5.3396-6.5959Zm0 8.7947c-1.2123 0-2.1987-.9862-2.1987-2.1988 0-1.4852 1.2535-3.4549 2.1987-3.4549.9453 0 2.1988 1.9697 2.1988 3.4549 0 1.2123-.9864 2.1988-2.1988 2.1988Zm10.0509-1.2565c-3.2098 0-5.3395 3.9698-5.3395 6.5959 0 2.9444 2.3951 5.3396 5.3395 5.3396 2.9444 0 5.3396-2.3952 5.3396-5.3396 0-2.6261-2.1298-6.5959-5.3396-6.5959Zm0 8.7945c-1.2123 0-2.1987-.9862-2.1987-2.1988 0-1.4852 1.2535-3.4549 2.1987-3.4549.9453 0 2.1988 1.9697 2.1988 3.4549-.0002 1.2126-.9865 2.1988-2.1988 2.1988Zm-32.6652-8.7945c-3.2098 0-5.3396 3.9698-5.3396 6.5959 0 2.9444 2.3952 5.3396 5.3396 5.3396 2.9443 0 5.3395-2.3952 5.3395-5.3396 0-2.6261-2.1298-6.5959-5.3395-6.5959Zm0 8.7945c-1.2124 0-2.1988-.9862-2.1988-2.1988 0-1.4852 1.2535-3.4549 2.1988-3.4549.9452 0 2.1987 1.9697 2.1987 3.4549-.0002 1.2126-.9864 2.1988-2.1987 2.1988Z" fill="#A07B50"/>
  <path d="M13.9031 24.452C6.57131 24.452.606689 30.4168.606689 37.7484c0 6.8002 5.132241 12.4208 11.726111 13.2005v10.2516c0 .8672.7032 1.5705 1.5705 1.5705s1.5705-.7033 1.5705-1.5705V50.9489c6.5939-.7797 11.7261-6.4005 11.7261-13.2005-.0002-7.3316-5.965-13.2964-13.2968-13.2964Zm0 23.452c-5.59973 0-10.15558-4.5558-10.15558-10.1556 0-5.5997 4.55585-10.1556 10.15558-10.1556 5.5997 0 10.1556 4.5559 10.1556 10.1556 0 5.5998-4.5556 10.1556-10.1556 10.1556Z" stroke="#1F1C1D"/>
  <path d="M13.9031 31.1527c-3.6369 0-6.59594 2.959-6.59594 6.596 0 3.6369 2.95904 6.5959 6.59594 6.5959 3.637 0 6.596-2.959 6.596-6.5959 0-3.637-2.959-6.596-6.596-6.596Zm0 10.0509c-1.9051 0-3.4549-1.55-3.4549-3.4549 0-1.9049 1.55-3.4549 3.4549-3.4549 1.9051 0 3.455 1.55 3.455 3.4549 0 1.9049-1.5499 3.4549-3.455 3.4549Zm82.9198-2.5128h-.9423v-26.907c0-4.56066-3.7105-8.27097-8.271-8.27097h-3.4549v-.94231C84.1547 1.70323 83.4517 1 82.5842 1h-4.1879c-2.2514 0-4.0831 1.83175-4.0831 4.08314 0 2.25139 1.8317 4.08313 4.0831 4.08313h4.1879c.8675 0 1.5705-.70323 1.5705-1.57051v-.94231h3.4549c2.8288 0 5.1302 2.30154 5.1302 5.13015v26.9069h-.9423c-.8675 0-1.5706.7033-1.5706 1.5706v2.5126c0 6.9853-5.6831 12.6682-12.6682 12.6682H57.4569c-6.9851 0-12.6682-5.6829-12.6682-12.6682v-2.5126c0-.8673-.7032-1.5706-1.5705-1.5706h-.9423V11.7838c0-2.8286 2.3015-5.13015 5.1301-5.13015h3.455v.94231c0 .86729.703 1.57052 1.5705 1.57052h4.1878c2.2514 0 4.0832-1.83175 4.0832-4.08313C60.7027 2.83175 58.8709 1 56.6193 1h-4.1878c-.8675 0-1.5705.70323-1.5705 1.57052v.94231h-3.455c-4.5606 0-8.2709 3.71052-8.2709 8.27097v26.907h-.9424c-.8672 0-1.5705.7032-1.5705 1.5705v2.5126c0 11.4881 9.3464 20.8347 20.8347 20.8347h5.9678v7.6428c0 .8672.703 1.5705 1.5705 1.5705h.9423v8.4803c0 12.9893-10.5677 23.5568-23.5567 23.5568h-3.3502c-12.9893 0-23.5568-10.5675-23.5568-23.5568V68.8083c0-.8673-.7032-1.5705-1.5705-1.5705s-1.5705.7032-1.5705 1.5705v12.4939C12.3328 96.0235 24.3093 108 39.0306 108h3.3502c14.7213 0 26.6978-11.9765 26.6978-26.6978v-8.4803h.9423c.8675 0 1.5705-.7033 1.5705-1.5705v-7.6428h5.9677c11.4881 0 20.8347-9.3464 20.8347-20.8347v-2.5126c-.0004-.8673-.7034-1.5705-1.5709-1.5705ZM81.0136 6.02545h-2.6173c-.5195 0-.9423-.42278-.9423-.94231 0-.51954.4228-.94231.9423-.94231h2.6173v1.88462ZM54.002 4.14083h2.6173c.5196 0 .9423.42277.9423.94231 0 .51953-.4227.94231-.9423.94231H54.002V4.14083ZM95.2526 42.7739c0 9.7562-7.9372 17.6936-17.6937 17.6936h-7.538c-.8675 0-1.5706.7033-1.5706 1.5706v7.6427h-1.8846v-7.6427c0-.8673-.703-1.5706-1.5705-1.5706h-7.5381c-9.7564 0-17.6936-7.9374-17.6936-17.6936v-.9423h1.8846v.9423c0 8.7174 7.0919 15.8092 15.8092 15.8092h20.1018c8.7174 0 15.8093-7.0918 15.8093-15.8092v-.9423h1.8846l-.0004.9423Z" stroke="#1F1C1D"/>
  <path d="M67.5078 26.1272c-7.1007 0-12.8776 5.7769-12.8776 12.8776 0 6.4902 4.8139 10.365 12.8776 10.365 8.0637 0 12.8776-3.8748 12.8776-10.365.0002-7.1007-5.7767-12.8776-12.8776-12.8776Zm0 20.1018c-3.6363 0-9.7368-.9386-9.7368-7.2242 0-5.3688 4.3678-9.7368 9.7368-9.7368 5.369 0 9.7368 4.368 9.7368 9.7368 0 6.2856-6.1005 7.2242-9.7368 7.2242Zm-6.2817-32.6654c-3.2098 0-5.3395 3.9698-5.3395 6.5959 0 2.9444 2.3952 5.3396 5.3395 5.3396 2.9444 0 5.3396-2.3952 5.3396-5.3396-.0002-2.6259-2.1298-6.5959-5.3396-6.5959Zm0 8.7947c-1.2123 0-2.1987-.9862-2.1987-2.1988 0-1.4852 1.2535-3.4549 2.1987-3.4549.9453 0 2.1988 1.9697 2.1988 3.4549-.0002 1.2123-.9864 2.1988-2.1988 2.1988Zm12.5635-8.7947c-3.2098 0-5.3395 3.9698-5.3395 6.5959 0 2.9444 2.3952 5.3396 5.3395 5.3396 2.9444 0 5.3396-2.3952 5.3396-5.3396 0-2.6259-2.1298-6.5959-5.3396-6.5959Zm0 8.7947c-1.2123 0-2.1987-.9862-2.1987-2.1988 0-1.4852 1.2535-3.4549 2.1987-3.4549.9453 0 2.1988 1.9697 2.1988 3.4549 0 1.2123-.9864 2.1988-2.1988 2.1988Zm10.0509-1.2565c-3.2098 0-5.3395 3.9698-5.3395 6.5959 0 2.9444 2.3951 5.3396 5.3395 5.3396 2.9444 0 5.3396-2.3952 5.3396-5.3396 0-2.6261-2.1298-6.5959-5.3396-6.5959Zm0 8.7945c-1.2123 0-2.1987-.9862-2.1987-2.1988 0-1.4852 1.2535-3.4549 2.1987-3.4549.9453 0 2.1988 1.9697 2.1988 3.4549-.0002 1.2126-.9865 2.1988-2.1988 2.1988Zm-32.6652-8.7945c-3.2098 0-5.3396 3.9698-5.3396 6.5959 0 2.9444 2.3952 5.3396 5.3396 5.3396 2.9443 0 5.3395-2.3952 5.3395-5.3396 0-2.6261-2.1298-6.5959-5.3395-6.5959Zm0 8.7945c-1.2124 0-2.1988-.9862-2.1988-2.1988 0-1.4852 1.2535-3.4549 2.1988-3.4549.9452 0 2.1987 1.9697 2.1987 3.4549-.0002 1.2126-.9864 2.1988-2.1987 2.1988Z" stroke="#1F1C1D"/>
</svg>
