<svg width="109" height="97" fill="none" xmlns="http://www.w3.org/2000/svg">
  <path d="M44.3499 42.7547c-7.0846 0-12.8484 5.7638-12.8484 12.8484 0 6.4754 4.8031 10.3414 12.8484 10.3414 8.0453 0 12.8483-3.866 12.8483-10.3414 0-7.0846-5.7637-12.8484-12.8483-12.8484Zm0 20.0558c-3.628 0-9.7146-.9364-9.7146-7.2076 0-5.3569 4.3579-9.7147 9.7146-9.7147 5.3565 0 9.7146 4.3578 9.7146 9.7147 0 6.2712-6.0866 7.2076-9.7146 7.2076Zm-6.2675-32.5907c-3.2027 0-5.3274 3.9611-5.3274 6.581 0 2.9374 2.3897 5.3274 5.3274 5.3274s5.3274-2.3898 5.3274-5.3274c0-2.6201-2.1247-6.581-5.3274-6.581Zm0 8.7745c-1.2096 0-2.1937-.9839-2.1937-2.1938 0-1.4821 1.2506-3.4472 2.1937-3.4472.9431 0 2.1937 1.9651 2.1937 3.4472 0 1.2096-.9841 2.1938-2.1937 2.1938Zm12.5349-8.7745c-3.2027 0-5.3274 3.9611-5.3274 6.581 0 2.9374 2.3897 5.3274 5.3274 5.3274s5.3274-2.3898 5.3274-5.3274c0-2.6201-2.1247-6.581-5.3274-6.581Zm0 8.7745c-1.2096 0-2.1937-.9839-2.1937-2.1938 0-1.4821 1.2505-3.4472 2.1937-3.4472.9431 0 2.1937 1.9651 2.1937 3.4472 0 1.2096-.9841 2.1938-2.1937 2.1938Zm10.0278-1.2535c-3.2027 0-5.3274 3.9611-5.3274 6.5809 0 2.9375 2.3897 5.3274 5.3274 5.3274s5.3274-2.3897 5.3274-5.3274c0-2.62-2.1247-6.5809-5.3274-6.5809Zm0 8.7744c-1.2096 0-2.1937-.9839-2.1937-2.1937 0-1.4821 1.2506-3.4472 2.1937-3.4472.9432 0 2.1937 1.9651 2.1937 3.4472 0 1.2096-.9841 2.1937-2.1937 2.1937Zm-32.5907-8.7744c-3.2027 0-5.3274 3.9611-5.3274 6.5809 0 2.9375 2.3897 5.3274 5.3274 5.3274s5.3274-2.3897 5.3274-5.3274c0-2.62-2.1247-6.5809-5.3274-6.5809Zm0 8.7744c-1.2096 0-2.1937-.9839-2.1937-2.1937 0-1.4821 1.2505-3.4472 2.1937-3.4472.9431 0 2.1937 1.9651 2.1937 3.4472 0 1.2096-.9841 2.1937-2.1937 2.1937Z" fill="#A07B50"/>
  <path d="M47.6925 52.7826h-1.7757v-1.7757c0-.8656-.7016-1.5668-1.5668-1.5668s-1.5667.7014-1.5667 1.5668v1.7757h-1.7758c-.8654 0-1.5667.7014-1.5667 1.5668 0 .8656.7016 1.5667 1.5667 1.5667h1.7758v1.7758c0 .8656.7015 1.5667 1.5667 1.5667s1.5668-.7013 1.5668-1.5667v-1.7758h1.7757c.8654 0 1.5668-.7013 1.5668-1.5667s-.7016-1.5668-1.5668-1.5668Z" fill="#A07B50"/>
  <path d="M63.1969 3.26783C58.4824 1.74412 53.547.971924 48.5281.971924c-12.6954 0-24.6307 4.943736-33.6077 13.920676C5.94374 23.8695 1 35.8048 1 48.5s4.94373 24.6305 13.9207 33.6076c8.9769 8.9769 20.9122 13.9207 33.6076 13.9207.8654 0 1.5667-.7014 1.5667-1.5668 0-.8656-.7015-1.5667-1.5667-1.5667-11.8582 0-23.0067-4.618-31.3916-13.0028C8.75165 71.5065 4.13372 60.3582 4.13372 48.5S8.75165 25.4935 17.1365 17.1084C25.5216 8.72316 36.6699 4.10564 48.5281 4.10564c4.6915 0 9.3023.72142 13.7052 2.14439.8125.26353 1.7101-.19686 1.9728-1.00897.2627-.81274-.1967-1.71075-1.0092-1.97323Z" fill="#A07B50"/>
  <path d="m107.612 43.9273-5.502-6.2891c-.562-.6423-1.569-.7098-2.2113-.1476l-4.3827 3.8349c-1.512-9.9567-6.197-19.25-13.3804-26.4334-3.4236-3.4236-7.305-6.2871-11.5372-8.51069-.7559-.39791-1.7187-.0978-2.1159.65788-.3971.7559-.0978 1.71869.658 2.11597 3.9524 2.07714 7.5789 4.75274 10.779 7.95294 7.4863 7.4862 11.9234 16.9914 12.8315 27.4877.1084 1.2522 1.6447 1.8737 2.5928 1.0441l5.4392-4.7592 3.439 3.9305-12.1916 10.6676c-.972.8506-2.4671.8506-3.4393 0L76.3996 44.8113l3.4393-3.9305 5.0003 4.3753c1.0571.9247 2.7519.0307 2.5881-1.3624C85.1082 24.1883 68.3851 9.3283 48.5282 9.3283c-21.5994 0-39.17161 17.5722-39.17161 39.1716S26.9288 87.6715 48.5282 87.6715c.8654 0 1.5668-.7013 1.5668-1.5669 0-.8657-.7016-1.5668-1.5668-1.5668-19.8713 0-36.0379-16.1664-36.0379-36.0379S28.6567 12.462 48.528 12.462c16.7919 0 31.1485 11.5512 35.016 27.4967l-2.8205-2.4679c-.6424-.5619-1.6493-.4942-2.2108.1476l-5.5028 6.2891c-.5699.6512-.5039 1.641.1475 2.2109L86.528 57.8375c2.1386 1.8713 5.4278 1.8713 7.5665 0l13.3705-11.6991c.651-.5699.717-1.5597.147-2.2111Z" fill="#A07B50"/>
  <path d="M74.4335 90.3873H62.8029c5.1807-3.855 13.1976-11.0258 13.1976-18.4891 0-5.4716-4.4518-9.9234-9.9235-9.9234-5.4716 0-9.9234 4.4518-9.9234 9.9234 0 .8656.7016 1.5668 1.5668 1.5668s1.5667-.7014 1.5667-1.5668c0-3.7439 3.046-6.7897 6.7897-6.7897 3.7438 0 6.7897 3.0458 6.7897 6.7897 0 9.0223-15.7933 18.6165-15.9526 18.7121-.6152.369-.9043 1.1341-.6871 1.8179.2042.6433.8188 1.0926 1.4934 1.0926h16.7131c.8654 0 1.5667-.7014 1.5667-1.5668.0005-.8654-.7011-1.5667-1.5665-1.5667Zm25.0699-6.6851h-3.4471V63.5419c0-.6423-.4071-1.2341-1.0067-1.4636-.6395-.2447-1.3846-.0349-1.8021.5079l-16.7131 21.727c-.7778 1.0113-.0314 2.5223 1.242 2.5223h15.1463v5.1184c0 .8656.7016 1.5668 1.5668 1.5668s1.5668-.7014 1.5668-1.5668v-5.1184h3.4471c.8656 0 1.5666-.7014 1.5666-1.5668s-.701-1.5665-1.5666-1.5665Zm-6.5809 0H80.9582l11.9643-15.5535v15.5535Z" fill="#A07B50"/>
  <path d="M44.3499 42.7547c-7.0846 0-12.8484 5.7638-12.8484 12.8484 0 6.4754 4.8031 10.3414 12.8484 10.3414 8.0453 0 12.8483-3.866 12.8483-10.3414 0-7.0846-5.7637-12.8484-12.8483-12.8484Zm0 20.0558c-3.628 0-9.7146-.9364-9.7146-7.2076 0-5.3569 4.3579-9.7147 9.7146-9.7147 5.3565 0 9.7146 4.3578 9.7146 9.7147 0 6.2712-6.0866 7.2076-9.7146 7.2076Zm-6.2675-32.5907c-3.2027 0-5.3274 3.9611-5.3274 6.581 0 2.9374 2.3897 5.3274 5.3274 5.3274s5.3274-2.3898 5.3274-5.3274c0-2.6201-2.1247-6.581-5.3274-6.581Zm0 8.7745c-1.2096 0-2.1937-.9839-2.1937-2.1938 0-1.4821 1.2506-3.4472 2.1937-3.4472.9431 0 2.1937 1.9651 2.1937 3.4472 0 1.2096-.9841 2.1938-2.1937 2.1938Zm12.5349-8.7745c-3.2027 0-5.3274 3.9611-5.3274 6.581 0 2.9374 2.3897 5.3274 5.3274 5.3274s5.3274-2.3898 5.3274-5.3274c0-2.6201-2.1247-6.581-5.3274-6.581Zm0 8.7745c-1.2096 0-2.1937-.9839-2.1937-2.1938 0-1.4821 1.2505-3.4472 2.1937-3.4472.9431 0 2.1937 1.9651 2.1937 3.4472 0 1.2096-.9841 2.1938-2.1937 2.1938Zm10.0278-1.2535c-3.2027 0-5.3274 3.9611-5.3274 6.5809 0 2.9375 2.3897 5.3274 5.3274 5.3274s5.3274-2.3897 5.3274-5.3274c0-2.62-2.1247-6.5809-5.3274-6.5809Zm0 8.7744c-1.2096 0-2.1937-.9839-2.1937-2.1937 0-1.4821 1.2506-3.4472 2.1937-3.4472.9432 0 2.1937 1.9651 2.1937 3.4472 0 1.2096-.9841 2.1937-2.1937 2.1937Zm-32.5907-8.7744c-3.2027 0-5.3274 3.9611-5.3274 6.5809 0 2.9375 2.3897 5.3274 5.3274 5.3274s5.3274-2.3897 5.3274-5.3274c0-2.62-2.1247-6.5809-5.3274-6.5809Zm0 8.7744c-1.2096 0-2.1937-.9839-2.1937-2.1937 0-1.4821 1.2505-3.4472 2.1937-3.4472.9431 0 2.1937 1.9651 2.1937 3.4472 0 1.2096-.9841 2.1937-2.1937 2.1937Z" stroke="#1F1C1D"/>
  <path d="M47.6925 52.7826h-1.7757v-1.7757c0-.8656-.7016-1.5668-1.5668-1.5668s-1.5667.7014-1.5667 1.5668v1.7757h-1.7758c-.8654 0-1.5667.7014-1.5667 1.5668 0 .8656.7016 1.5667 1.5667 1.5667h1.7758v1.7758c0 .8656.7015 1.5667 1.5667 1.5667s1.5668-.7013 1.5668-1.5667v-1.7758h1.7757c.8654 0 1.5668-.7013 1.5668-1.5667s-.7016-1.5668-1.5668-1.5668Z" stroke="#1F1C1D"/>
  <path d="M63.1969 3.26783C58.4824 1.74412 53.547.971924 48.5281.971924c-12.6954 0-24.6307 4.943736-33.6077 13.920676C5.94374 23.8695 1 35.8048 1 48.5s4.94373 24.6305 13.9207 33.6076c8.9769 8.9769 20.9122 13.9207 33.6076 13.9207.8654 0 1.5667-.7014 1.5667-1.5668 0-.8656-.7015-1.5667-1.5667-1.5667-11.8582 0-23.0067-4.618-31.3916-13.0028C8.75165 71.5065 4.13372 60.3582 4.13372 48.5S8.75165 25.4935 17.1365 17.1084C25.5216 8.72316 36.6699 4.10564 48.5281 4.10564c4.6915 0 9.3023.72142 13.7052 2.14439.8125.26353 1.7101-.19686 1.9728-1.00897.2627-.81274-.1967-1.71075-1.0092-1.97323Z" stroke="#1F1C1D"/>
  <path d="m107.612 43.9273-5.502-6.2891c-.562-.6423-1.569-.7098-2.2113-.1476l-4.3827 3.8349c-1.512-9.9567-6.197-19.25-13.3804-26.4334-3.4236-3.4236-7.305-6.2871-11.5372-8.51069-.7559-.39791-1.7187-.0978-2.1159.65788-.3971.7559-.0978 1.71869.658 2.11597 3.9524 2.07714 7.5789 4.75274 10.779 7.95294 7.4863 7.4862 11.9234 16.9914 12.8315 27.4877.1084 1.2522 1.6447 1.8737 2.5928 1.0441l5.4392-4.7592 3.439 3.9305-12.1916 10.6676c-.972.8506-2.4671.8506-3.4393 0L76.3996 44.8113l3.4393-3.9305 5.0003 4.3753c1.0571.9247 2.7519.0307 2.5881-1.3624C85.1082 24.1883 68.3851 9.3283 48.5282 9.3283c-21.5994 0-39.17161 17.5722-39.17161 39.1716S26.9288 87.6715 48.5282 87.6715c.8654 0 1.5668-.7013 1.5668-1.5669 0-.8657-.7016-1.5668-1.5668-1.5668-19.8713 0-36.0379-16.1664-36.0379-36.0379S28.6567 12.462 48.528 12.462c16.7919 0 31.1485 11.5512 35.016 27.4967l-2.8205-2.4679c-.6424-.5619-1.6493-.4942-2.2108.1476l-5.5028 6.2891c-.5699.6512-.5039 1.641.1475 2.2109L86.528 57.8375c2.1386 1.8713 5.4278 1.8713 7.5665 0l13.3705-11.6991c.651-.5699.717-1.5597.147-2.2111Z" stroke="#1F1C1D"/>
  <path d="M74.4335 90.3873H62.8029c5.1807-3.855 13.1976-11.0258 13.1976-18.4891 0-5.4716-4.4518-9.9234-9.9235-9.9234-5.4716 0-9.9234 4.4518-9.9234 9.9234 0 .8656.7016 1.5668 1.5668 1.5668s1.5667-.7014 1.5667-1.5668c0-3.7439 3.046-6.7897 6.7897-6.7897 3.7438 0 6.7897 3.0458 6.7897 6.7897 0 9.0223-15.7933 18.6165-15.9526 18.7121-.6152.369-.9043 1.1341-.6871 1.8179.2042.6433.8188 1.0926 1.4934 1.0926h16.7131c.8654 0 1.5667-.7014 1.5667-1.5668.0005-.8654-.7011-1.5667-1.5665-1.5667Zm25.0699-6.6851h-3.4471V63.5419c0-.6423-.4071-1.2341-1.0067-1.4636-.6395-.2447-1.3846-.0349-1.8021.5079l-16.7131 21.727c-.7778 1.0113-.0314 2.5223 1.242 2.5223h15.1463v5.1184c0 .8656.7016 1.5668 1.5668 1.5668s1.5668-.7014 1.5668-1.5668v-5.1184h3.4471c.8656 0 1.5666-.7014 1.5666-1.5668s-.701-1.5665-1.5666-1.5665Zm-6.5809 0H80.9582l11.9643-15.5535v15.5535Z" stroke="#1F1C1D"/>
</svg>
