<svg width="73" height="110" fill="none" xmlns="http://www.w3.org/2000/svg">
  <path d="m71.4381 34.0674-6.5653-14.9103V2.58525c0-1.15636-1.2461-1.935775-2.2727-1.41771l-5.9982 3.02737-5.9983-3.02737c-.442-.223386-.9628-.223386-1.4048 0l-5.9982 3.02737-5.9981-3.02737c-.442-.223386-.9628-.223386-1.4048 0l-5.9982 3.02737-5.9983-3.02737c-.442-.223386-.9626-.223386-1.4046 0l-5.9982 3.02737-5.9983-3.02737C9.37358.649475 8.12741 1.4291 8.12741 2.58525V19.1569L1.56197 34.0672c-.08903.2014-.13521.4235-.13521.6438v72.704c0 .875.70323 1.585 1.57051 1.585H70.003c.8675 0 1.5705-.71 1.5705-1.585V34.711c-.0002-.2217-.046-.4409-.1354-.6436ZM11.2682 5.15003 15.696 7.3847c.442.22338.9626.22338 1.4046 0l5.9982-3.02716 5.9983 3.02716c.442.22338.9626.22338 1.4046 0l5.9982-3.02716 5.9983 3.02716c.442.22338.9628.22338 1.4048 0l5.998-3.02716 5.9983 3.02716c.442.22338.9628.22338 1.4048 0l4.4275-2.23467V17.9081H11.2682V5.15003ZM4.56758 81.9472H39.2995l6.4126 5.1781-6.4126 5.178H4.56758V81.9472ZM44.8758 36.2957h10.1556V105.83H4.56758V95.4737H39.8503c.3566 0 .7026-.1225.9812-.3474l8.3757-6.7633c.7734-.6248.7734-1.8507 0-2.4755l-8.3757-6.7633c-.2786-.2246-.6244-.3474-.9812-.3474H4.56758V36.2957H37.5469c.8675 0 1.5705-.7096 1.5705-1.5852 0-.8756-.703-1.5851-1.5705-1.5851H5.41396l5.30464-12.0471H60.886l-5.3044 12.0471H44.8758c-.8675 0-1.5705.7095-1.5705 1.5851 0 .8756.703 1.5852 1.5705 1.5852ZM68.4325 105.83H58.1722V35.0474l5.1301-11.6511 5.1302 11.6511V105.83Z" fill="#A07B50"/>
  <path d="M29.7995 51.7241c-7.1006 0-12.8776 5.831-12.8776 12.998 0 6.5509 4.8142 10.4618 12.8776 10.4618 8.0637 0 12.8776-3.9109 12.8776-10.4618 0-7.167-5.7769-12.998-12.8776-12.998Zm0 20.2897c-3.6363 0-9.7368-.9474-9.7368-7.2917 0-5.4192 4.368-9.8278 9.7368-9.8278 5.369 0 9.7368 4.4086 9.7368 9.8278 0 6.3446-6.1005 7.2917-9.7368 7.2917Zm-6.2819-32.9706c-3.21 0-5.3395 4.0072-5.3395 6.6576 0 2.9719 2.3953 5.3894 5.3395 5.3894 2.9444 0 5.3396-2.4175 5.3396-5.3894 0-2.6504-2.1296-6.6576-5.3396-6.6576Zm0 8.8766c-1.2123 0-2.1987-.9954-2.1987-2.2192 0-1.4991 1.2535-3.4872 2.1987-3.4872s2.1987 1.9878 2.1987 3.4872c0 1.2238-.9864 2.2192-2.1987 2.2192Zm12.5635-8.8766c-3.2098 0-5.3395 4.0072-5.3395 6.6576 0 2.9719 2.3953 5.3894 5.3395 5.3894 2.9444 0 5.3395-2.4175 5.3395-5.3894 0-2.6504-2.1297-6.6576-5.3395-6.6576Zm0 8.8766c-1.2123 0-2.1987-.9954-2.1987-2.2192 0-1.4991 1.2537-3.4872 2.1987-3.4872.9452 0 2.1987 1.9878 2.1987 3.4872 0 1.2238-.9862 2.2192-2.1987 2.2192Zm10.0509-1.2682c-3.2098 0-5.3396 4.0072-5.3396 6.6576 0 2.9719 2.3952 5.3895 5.3396 5.3895 2.9443 0 5.3395-2.4176 5.3395-5.3895 0-2.6502-2.1297-6.6576-5.3395-6.6576Zm0 8.8769c-1.2123 0-2.1988-.9954-2.1988-2.2193 0-1.4993 1.2535-3.4872 2.1988-3.4872.9452 0 2.1987 1.9879 2.1987 3.4872 0 1.2239-.9862 2.2193-2.1987 2.2193Zm-32.6652-8.8769c-3.21 0-5.33958 4.0072-5.33958 6.6576 0 2.9719 2.39518 5.3895 5.33958 5.3895 2.9443 0 5.3395-2.4176 5.3395-5.3895 0-2.6502-2.1295-6.6576-5.3395-6.6576Zm0 8.8769c-1.2124 0-2.1988-.9954-2.1988-2.2193 0-1.4993 1.2535-3.4872 2.1988-3.4872.9452 0 2.1987 1.9879 2.1987 3.4872 0 1.2239-.9864 2.2193-2.1987 2.2193Zm2.9316 43.5382H9.69773c-.86728 0-1.57051.7096-1.57051 1.5853 0 .875.70323 1.585 1.57051 1.585h6.70067c.8673 0 1.5705-.71 1.5705-1.585-.0002-.876-.7032-1.5853-1.5705-1.5853Zm21.7767 0H23.0988c-.8673 0-1.5705.7096-1.5705 1.5853 0 .875.7032 1.585 1.5705 1.585h15.0763c.8675 0 1.5705-.71 1.5705-1.585 0-.876-.703-1.5853-1.5705-1.5853ZM21.4237 85.5403H9.69762c-.86728 0-1.57051.7096-1.57051 1.5852 0 .8756.70323 1.5852 1.57051 1.5852H21.4237c.8673 0 1.5705-.7096 1.5705-1.5852 0-.8758-.703-1.5852-1.5705-1.5852Zm15.0763 0h-8.3757c-.8672 0-1.5705.7096-1.5705 1.5852 0 .8756.7033 1.5852 1.5705 1.5852H36.5c.8675 0 1.5705-.7096 1.5705-1.5852 0-.8758-.7028-1.5852-1.5705-1.5852Z" fill="#A07B50"/>
  <path d="m71.4381 34.0674-6.5653-14.9103V2.58525c0-1.15636-1.2461-1.935775-2.2727-1.41771l-5.9982 3.02737-5.9983-3.02737c-.442-.223386-.9628-.223386-1.4048 0l-5.9982 3.02737-5.9981-3.02737c-.442-.223386-.9628-.223386-1.4048 0l-5.9982 3.02737-5.9983-3.02737c-.442-.223386-.9626-.223386-1.4046 0l-5.9982 3.02737-5.9983-3.02737C9.37358.649475 8.12741 1.4291 8.12741 2.58525V19.1569L1.56197 34.0672c-.08903.2014-.13521.4235-.13521.6438v72.704c0 .875.70323 1.585 1.57051 1.585H70.003c.8675 0 1.5705-.71 1.5705-1.585V34.711c-.0002-.2217-.046-.4409-.1354-.6436ZM11.2682 5.15003 15.696 7.3847c.442.22338.9626.22338 1.4046 0l5.9982-3.02716 5.9983 3.02716c.442.22338.9626.22338 1.4046 0l5.9982-3.02716 5.9983 3.02716c.442.22338.9628.22338 1.4048 0l5.998-3.02716 5.9983 3.02716c.442.22338.9628.22338 1.4048 0l4.4275-2.23467V17.9081H11.2682V5.15003ZM4.56758 81.9472H39.2995l6.4126 5.1781-6.4126 5.178H4.56758V81.9472ZM44.8758 36.2957h10.1556V105.83H4.56758V95.4737H39.8503c.3566 0 .7026-.1225.9812-.3474l8.3757-6.7633c.7734-.6248.7734-1.8507 0-2.4755l-8.3757-6.7633c-.2786-.2246-.6244-.3474-.9812-.3474H4.56758V36.2957H37.5469c.8675 0 1.5705-.7096 1.5705-1.5852 0-.8756-.703-1.5851-1.5705-1.5851H5.41396l5.30464-12.0471H60.886l-5.3044 12.0471H44.8758c-.8675 0-1.5705.7095-1.5705 1.5851 0 .8756.703 1.5852 1.5705 1.5852ZM68.4325 105.83H58.1722V35.0474l5.1301-11.6511 5.1302 11.6511V105.83Z" stroke="#1F1C1D"/>
  <path d="M29.7995 51.7241c-7.1006 0-12.8776 5.831-12.8776 12.998 0 6.5509 4.8142 10.4618 12.8776 10.4618 8.0637 0 12.8776-3.9109 12.8776-10.4618 0-7.167-5.7769-12.998-12.8776-12.998Zm0 20.2897c-3.6363 0-9.7368-.9474-9.7368-7.2917 0-5.4192 4.368-9.8278 9.7368-9.8278 5.369 0 9.7368 4.4086 9.7368 9.8278 0 6.3446-6.1005 7.2917-9.7368 7.2917Zm-6.2819-32.9706c-3.21 0-5.3395 4.0072-5.3395 6.6576 0 2.9719 2.3953 5.3894 5.3395 5.3894 2.9444 0 5.3396-2.4175 5.3396-5.3894 0-2.6504-2.1296-6.6576-5.3396-6.6576Zm0 8.8766c-1.2123 0-2.1987-.9954-2.1987-2.2192 0-1.4991 1.2535-3.4872 2.1987-3.4872s2.1987 1.9878 2.1987 3.4872c0 1.2238-.9864 2.2192-2.1987 2.2192Zm12.5635-8.8766c-3.2098 0-5.3395 4.0072-5.3395 6.6576 0 2.9719 2.3953 5.3894 5.3395 5.3894 2.9444 0 5.3395-2.4175 5.3395-5.3894 0-2.6504-2.1297-6.6576-5.3395-6.6576Zm0 8.8766c-1.2123 0-2.1987-.9954-2.1987-2.2192 0-1.4991 1.2537-3.4872 2.1987-3.4872.9452 0 2.1987 1.9878 2.1987 3.4872 0 1.2238-.9862 2.2192-2.1987 2.2192Zm10.0509-1.2682c-3.2098 0-5.3396 4.0072-5.3396 6.6576 0 2.9719 2.3952 5.3895 5.3396 5.3895 2.9443 0 5.3395-2.4176 5.3395-5.3895 0-2.6502-2.1297-6.6576-5.3395-6.6576Zm0 8.8769c-1.2123 0-2.1988-.9954-2.1988-2.2193 0-1.4993 1.2535-3.4872 2.1988-3.4872.9452 0 2.1987 1.9879 2.1987 3.4872 0 1.2239-.9862 2.2193-2.1987 2.2193Zm-32.6652-8.8769c-3.21 0-5.33958 4.0072-5.33958 6.6576 0 2.9719 2.39518 5.3895 5.33958 5.3895 2.9443 0 5.3395-2.4176 5.3395-5.3895 0-2.6502-2.1295-6.6576-5.3395-6.6576Zm0 8.8769c-1.2124 0-2.1988-.9954-2.1988-2.2193 0-1.4993 1.2535-3.4872 2.1988-3.4872.9452 0 2.1987 1.9879 2.1987 3.4872 0 1.2239-.9864 2.2193-2.1987 2.2193Zm2.9316 43.5382H9.69773c-.86728 0-1.57051.7096-1.57051 1.5853 0 .875.70323 1.585 1.57051 1.585h6.70067c.8673 0 1.5705-.71 1.5705-1.585-.0002-.876-.7032-1.5853-1.5705-1.5853Zm21.7767 0H23.0988c-.8673 0-1.5705.7096-1.5705 1.5853 0 .875.7032 1.585 1.5705 1.585h15.0763c.8675 0 1.5705-.71 1.5705-1.585 0-.876-.703-1.5853-1.5705-1.5853ZM21.4237 85.5403H9.69762c-.86728 0-1.57051.7096-1.57051 1.5852 0 .8756.70323 1.5852 1.57051 1.5852H21.4237c.8673 0 1.5705-.7096 1.5705-1.5852 0-.8758-.703-1.5852-1.5705-1.5852Zm15.0763 0h-8.3757c-.8672 0-1.5705.7096-1.5705 1.5852 0 .8756.7033 1.5852 1.5705 1.5852H36.5c.8675 0 1.5705-.7096 1.5705-1.5852 0-.8758-.7028-1.5852-1.5705-1.5852Z" stroke="#1F1C1D"/>
</svg>
