<svg width="7" height="12" viewBox="0 0 7 12" fill="none" xmlns="http://www.w3.org/2000/svg">
<path d="M2.00084 2.90466C2.00084 3.17931 2.00084 4.40518 2.00084 4.40518H0.876953V6.24003H2.00084V11.6926H4.30953V6.24018H5.85877C5.85877 6.24018 6.00387 5.36039 6.0742 4.39842C5.87256 4.39842 4.31826 4.39842 4.31826 4.39842C4.31826 4.39842 4.31826 3.33096 4.31826 3.14386C4.31826 2.95635 4.56998 2.70413 4.81877 2.70413C5.06709 2.70413 5.5912 2.70413 6.07663 2.70413C6.07663 2.45431 6.07663 1.59114 6.07663 0.793945C5.4286 0.793945 4.69134 0.793945 4.36637 0.793945C1.94377 0.793819 2.00084 2.63049 2.00084 2.90466Z" fill="white"/>
</svg>
