<svg width="15" height="9" viewBox="0 0 15 9" fill="none" xmlns="http://www.w3.org/2000/svg">
<path d="M13.9621 7.29957C13.9264 7.23646 13.7054 6.72977 12.6418 5.68836C11.5283 4.59785 11.6779 4.77493 13.019 2.88933C13.8358 1.74097 14.1624 1.03967 14.0602 0.739872C13.963 0.454096 13.3622 0.529485 13.3622 0.529485L11.3646 0.541757C11.3646 0.541757 11.2167 0.520719 11.1062 0.589971C10.999 0.658347 10.93 0.816138 10.93 0.816138C10.93 0.816138 10.6135 1.70502 10.1913 2.46067C9.3014 4.05523 8.94493 4.13938 8.79952 4.04032C8.46133 3.80977 8.54608 3.11287 8.54608 2.61846C8.54608 1.07299 8.76794 0.428674 8.11317 0.262118C7.89546 0.206891 7.73592 0.170073 7.18002 0.163937C6.46708 0.156047 5.86299 0.166567 5.52148 0.342766C5.2938 0.460232 5.11847 0.72234 5.22566 0.737243C5.35778 0.755652 5.65692 0.822274 5.81563 1.05019C6.02087 1.34386 6.01339 2.00483 6.01339 2.00483C6.01339 2.00483 6.13138 3.8238 5.73835 4.04997C5.4683 4.20513 5.09853 3.88867 4.30499 2.44138C3.89866 1.70064 3.59121 0.881007 3.59121 0.881007C3.59121 0.881007 3.53222 0.728476 3.42669 0.646951C3.29872 0.547894 3.11924 0.516336 3.11924 0.516336L1.21972 0.528608C1.21972 0.528608 0.934713 0.537375 0.830015 0.66799C0.73695 0.78458 0.822537 1.02477 0.822537 1.02477C0.822537 1.02477 2.30991 4.69515 3.99339 6.54569C5.5381 8.24193 7.29137 8.1306 7.29137 8.1306H8.08575C8.08575 8.1306 8.32589 8.10255 8.44803 7.96317C8.56104 7.83519 8.55689 7.59499 8.55689 7.59499C8.55689 7.59499 8.5411 6.4703 9.03634 6.30462C9.52409 6.14157 10.1506 7.39162 10.8145 7.87288C11.3164 8.23667 11.6978 8.1569 11.6978 8.1569L13.4735 8.1306C13.4735 8.1306 14.4025 8.07012 13.9621 7.29957Z" fill="white"/>
</svg>
