<svg width="17" height="11" viewBox="0 0 17 11" fill="none" xmlns="http://www.w3.org/2000/svg">
<path d="M14.4422 4.78985C15.3086 4.71993 15.8963 4.33466 16.1225 3.81191C15.8099 3.99971 14.8398 4.20444 14.304 4.00946C14.2778 3.88632 14.2484 3.76936 14.2196 3.66376C13.8114 2.19743 12.4136 1.0161 10.949 1.15881C11.0674 1.11201 11.1876 1.06844 11.3075 1.02932C11.4687 0.97284 12.4145 0.822306 12.2656 0.495732C12.1401 0.208485 10.9844 0.712816 10.7668 0.778735C11.0541 0.673069 11.5291 0.491312 11.58 0.168457C11.1399 0.227499 10.7079 0.431007 10.3741 0.726919C10.4946 0.600029 10.5861 0.44539 10.6055 0.278964C9.43176 1.01241 8.74613 2.4911 8.19126 3.92547C7.75557 3.51246 7.36941 3.18722 7.02299 3.00662C6.05116 2.49685 4.88917 1.96498 3.06512 1.30264C3.00913 1.89296 3.36359 2.67787 4.38495 3.19985C4.16366 3.17087 3.759 3.23553 3.43535 3.31134C3.56716 3.9876 3.99761 4.54477 5.16293 4.81419C4.63037 4.84857 4.35514 4.96711 4.1057 5.22261C4.34826 5.69295 4.94014 6.2465 6.00486 6.13287C4.8211 6.63194 5.52219 7.55616 6.48541 7.41832C4.84223 9.07849 2.25156 8.95647 0.763916 7.56791C4.64805 12.745 13.0913 10.6296 14.3495 5.64313C15.2922 5.65099 15.8464 5.32372 16.19 4.9629C15.6469 5.05306 14.8597 4.95989 14.4422 4.78985Z" fill="white"/>
</svg>
