<svg width="57" height="26" viewBox="0 0 57 26" fill="none" xmlns="http://www.w3.org/2000/svg">
<path d="M48.5715 25.3001H8.00873C7.61469 25.3001 7.26443 25.0496 7.13677 24.6771L1.07315 6.99161C0.908567 6.50947 1.16493 5.98566 1.64654 5.82003C1.79424 5.76992 1.94827 5.75726 2.09122 5.78258C2.42461 5.80209 2.7353 6.0036 2.87931 6.33065C3.62889 8.0329 6.29541 13.5284 9.40608 13.5284C9.44459 13.5284 9.48363 13.5273 9.52319 13.5252C11.3995 13.4419 14.334 11.2765 17.6588 1.43966C17.786 1.06513 18.1368 0.812988 18.5319 0.812988C18.9275 0.812988 19.2783 1.06513 19.4054 1.43966C20.5406 4.79404 24.3454 13.4741 28.2964 13.4741C28.307 13.4741 28.317 13.4735 28.3281 13.4735C30.2012 13.4509 33.0814 11.3488 36.1657 1.46023C36.2865 1.07463 36.6426 0.812988 37.0461 0.812988H37.0551C37.4623 0.817208 37.8184 1.08729 37.9312 1.47817C38.8739 4.72441 42.2172 13.2272 46.318 13.5822C48.7139 13.7795 51.3704 11.0681 53.9931 5.71242C54.2062 5.27512 54.7242 5.07836 55.1742 5.26563C55.6231 5.45183 55.851 5.95507 55.6938 6.41611L49.4439 24.6771C49.3158 25.0501 48.9655 25.3001 48.5715 25.3001ZM8.66705 23.4565H47.9121L51.5239 12.9033C49.7784 14.7506 48.006 15.5746 46.1576 15.4195C41.6158 15.0244 38.4994 8.47969 37.0503 4.63262C34.4909 11.7771 31.6334 15.2781 28.3492 15.3166C28.3312 15.3166 28.3144 15.3177 28.2964 15.3177C23.7066 15.3177 20.1634 8.28135 18.5582 4.4C15.8194 11.6273 12.8802 15.2206 9.60495 15.3673C7.92592 15.4322 6.46368 14.5955 5.20454 13.3543L8.66705 23.4565Z" fill="#A07B50" stroke="#1F1C1D" stroke-width="0.8"/>
</svg>
